<?xml version="1.0" encoding="UTF-8" standalone="no"?>
<!DOCTYPE svg PUBLIC "-//W3C//DTD SVG 1.1//EN" "http://www.w3.org/Graphics/SVG/1.1/DTD/svg11.dtd">
<svg width="100%" height="100%" viewBox="0 0 1000 1000" version="1.1" xmlns="http://www.w3.org/2000/svg" xmlns:xlink="http://www.w3.org/1999/xlink" xml:space="preserve" xmlns:serif="http://www.serif.com/" style="fill-rule:evenodd;clip-rule:evenodd;stroke-linejoin:round;stroke-miterlimit:2;">
    <g transform="matrix(1,0,0,1,-2100,0)">
        <rect id="Logo_White" x="2100" y="0" width="1000" height="1000" style="fill:none;"/>
        <g id="Logo_White1" serif:id="Logo_White">
            <g transform="matrix(0,3.539823,-3.539823,0,2213.9582,-3258.13497)">
                <path d="M1077.665,2.818C1072.44,3.56 1067.101,3.943 1061.673,3.943C999.307,3.943 948.673,-46.69 948.673,-109.057C948.673,-171.423 999.307,-222.057 1061.673,-222.057C1067.101,-222.057 1072.44,-221.673 1077.665,-220.932C1083.629,-220.085 1089.444,-218.773 1095.072,-217.032L1029.712,-151.672L1146.711,-34.673C1143.399,-30.89 1139.839,-27.331 1136.057,-24.019L1061.673,-98.403L1029.712,-66.442L1051.019,-45.134L1072.327,-66.442L1082.981,-55.788L1061.673,-34.481L1095.072,-1.082C1089.444,0.659 1083.629,1.972 1077.665,2.818ZM1063.702,-206.969C1063.027,-206.983 1062.351,-206.99 1061.673,-206.99C1007.622,-206.99 963.74,-163.108 963.74,-109.057C963.74,-55.006 1007.622,-11.123 1061.673,-11.123C1062.351,-11.123 1063.027,-11.13 1063.702,-11.144L1008.404,-66.442L1051.019,-109.057L1008.404,-151.672L1063.702,-206.969Z" style="fill:white;"/>
            </g>
        </g>
    </g>
</svg>
