<?xml version="1.0" encoding="UTF-8" standalone="no"?>
<!DOCTYPE svg PUBLIC "-//W3C//DTD SVG 1.1//EN" "http://www.w3.org/Graphics/SVG/1.1/DTD/svg11.dtd">
<svg width="100%" height="100%" viewBox="0 0 2700 1000" version="1.1" xmlns="http://www.w3.org/2000/svg" xmlns:xlink="http://www.w3.org/1999/xlink" xml:space="preserve" xmlns:serif="http://www.serif.com/" style="fill-rule:evenodd;clip-rule:evenodd;stroke-linejoin:round;stroke-miterlimit:2;">
    <g transform="matrix(1,0,0,1,-6400,0)">
        <g id="Logo_Black_Long" transform="matrix(5.4,0,0,2,6400,0)">
            <rect x="0" y="0" width="500" height="500" style="fill:none;"/>
            <g transform="matrix(0.401638,0,0,1.084423,-3172.503332,-1863.569078)">
                <g transform="matrix(100,0,0,100,8367,1970)">
                    <path d="M0.083,-0L0.083,-0.7L0.612,-0.7L0.612,-0.57L0.245,-0.57L0.245,-0L0.083,-0ZM0.233,-0.255L0.233,-0.385L0.569,-0.385L0.569,-0.255L0.233,-0.255Z" style="fill-rule:nonzero;"/>
                </g>
                <g transform="matrix(100,0,0,100,8439.417277,1970)">
                    <path d="M0.212,0.012C0.165,0.012 0.121,0.003 0.082,-0.014C0.042,-0.032 0.01,-0.057 -0.016,-0.09L0.074,-0.198C0.093,-0.172 0.113,-0.154 0.135,-0.141C0.156,-0.128 0.179,-0.121 0.204,-0.121C0.27,-0.121 0.303,-0.16 0.303,-0.237L0.303,-0.57L0.057,-0.57L0.057,-0.7L0.464,-0.7L0.464,-0.246C0.464,-0.16 0.443,-0.095 0.4,-0.052C0.357,-0.01 0.295,0.012 0.212,0.012Z" style="fill-rule:nonzero;"/>
                </g>
                <g transform="matrix(100,0,0,100,8503.558899,1970)">
                    <path d="M0.083,-0L0.083,-0.7L0.612,-0.7L0.612,-0.57L0.244,-0.57L0.244,-0.13L0.625,-0.13L0.625,-0L0.083,-0ZM0.232,-0.292L0.232,-0.418L0.569,-0.418L0.569,-0.292L0.232,-0.292Z" style="fill-rule:nonzero;"/>
                </g>
                <g transform="matrix(100,0,0,100,8580.677878,1970)">
                    <path d="M0.083,-0L0.083,-0.7L0.245,-0.7L0.245,-0.132L0.596,-0.132L0.596,-0L0.083,-0Z" style="fill-rule:nonzero;"/>
                </g>
                <g transform="matrix(100,0,0,100,8651.110731,1970)">
                    <path d="M0.083,-0L0.083,-0.7L0.401,-0.7C0.477,-0.7 0.544,-0.686 0.602,-0.657C0.66,-0.628 0.705,-0.587 0.738,-0.535C0.77,-0.483 0.787,-0.421 0.787,-0.35C0.787,-0.279 0.77,-0.218 0.738,-0.165C0.705,-0.113 0.66,-0.072 0.602,-0.043C0.544,-0.014 0.477,-0 0.401,-0L0.083,-0ZM0.245,-0.133L0.393,-0.133C0.44,-0.133 0.48,-0.142 0.514,-0.159C0.549,-0.177 0.575,-0.202 0.594,-0.235C0.613,-0.267 0.623,-0.306 0.623,-0.35C0.623,-0.395 0.613,-0.433 0.594,-0.466C0.575,-0.498 0.549,-0.523 0.514,-0.541C0.48,-0.558 0.44,-0.567 0.393,-0.567L0.245,-0.567L0.245,-0.133Z" style="fill-rule:nonzero;"/>
                </g>
                <g transform="matrix(100,0,0,100,8743.710731,1970)">
                    <path d="M0.083,-0L0.083,-0.7L0.217,-0.7L0.515,-0.206L0.444,-0.206L0.737,-0.7L0.87,-0.7L0.872,-0L0.72,-0L0.719,-0.467L0.747,-0.467L0.513,-0.074L0.44,-0.074L0.201,-0.467L0.235,-0.467L0.235,-0L0.083,-0Z" style="fill-rule:nonzero;"/>
                </g>
                <g transform="matrix(100,0,0,100,8849.171071,1970)">
                    <path d="M-0.009,-0L0.303,-0.7L0.463,-0.7L0.776,-0L0.606,-0L0.35,-0.618L0.414,-0.618L0.157,-0L-0.009,-0ZM0.147,-0.15L0.19,-0.273L0.55,-0.273L0.594,-0.15L0.147,-0.15Z" style="fill-rule:nonzero;"/>
                </g>
                <g transform="matrix(100,0,0,100,8935.788608,1970)">
                    <path d="M0.083,-0L0.083,-0.7L0.217,-0.7L0.63,-0.196L0.565,-0.196L0.565,-0.7L0.725,-0.7L0.725,-0L0.592,-0L0.178,-0.504L0.243,-0.504L0.243,-0L0.083,-0Z" style="fill-rule:nonzero;"/>
                </g>
                <g transform="matrix(100,0,0,100,9026.610991,1970)">
                    <path d="M0.083,-0L0.083,-0.7L0.217,-0.7L0.63,-0.196L0.565,-0.196L0.565,-0.7L0.725,-0.7L0.725,-0L0.592,-0L0.178,-0.504L0.243,-0.504L0.243,-0L0.083,-0Z" style="fill-rule:nonzero;"/>
                </g>
                <g transform="matrix(64,0,0,64,8367,2048.016)">
                    <path d="M0.313,0.012C0.257,0.012 0.204,0.004 0.152,-0.011C0.101,-0.026 0.059,-0.045 0.028,-0.069L0.083,-0.191C0.113,-0.17 0.148,-0.152 0.189,-0.139C0.231,-0.125 0.272,-0.118 0.314,-0.118C0.346,-0.118 0.372,-0.121 0.392,-0.128C0.412,-0.134 0.426,-0.143 0.435,-0.154C0.444,-0.166 0.449,-0.179 0.449,-0.193C0.449,-0.212 0.442,-0.227 0.427,-0.238C0.412,-0.249 0.393,-0.258 0.369,-0.265C0.345,-0.272 0.318,-0.279 0.289,-0.285C0.26,-0.291 0.231,-0.299 0.202,-0.308C0.173,-0.317 0.147,-0.329 0.123,-0.344C0.099,-0.359 0.079,-0.378 0.064,-0.402C0.05,-0.426 0.042,-0.457 0.042,-0.494C0.042,-0.534 0.053,-0.57 0.074,-0.603C0.096,-0.636 0.129,-0.662 0.172,-0.682C0.216,-0.702 0.271,-0.712 0.337,-0.712C0.381,-0.712 0.424,-0.707 0.467,-0.696C0.51,-0.686 0.548,-0.67 0.58,-0.65L0.53,-0.527C0.497,-0.546 0.465,-0.56 0.432,-0.569C0.399,-0.577 0.367,-0.582 0.336,-0.582C0.304,-0.582 0.279,-0.578 0.259,-0.571C0.239,-0.564 0.225,-0.554 0.216,-0.542C0.207,-0.53 0.203,-0.517 0.203,-0.502C0.203,-0.484 0.21,-0.469 0.225,-0.458C0.24,-0.447 0.259,-0.438 0.283,-0.432C0.307,-0.425 0.334,-0.418 0.363,-0.412C0.392,-0.406 0.421,-0.398 0.45,-0.389C0.479,-0.38 0.505,-0.368 0.529,-0.354C0.553,-0.339 0.573,-0.32 0.587,-0.296C0.602,-0.272 0.61,-0.242 0.61,-0.205C0.61,-0.166 0.599,-0.13 0.577,-0.097C0.555,-0.064 0.523,-0.038 0.479,-0.018C0.435,0.002 0.38,0.012 0.313,0.012Z" style="fill-rule:nonzero;"/>
                </g>
                <g transform="matrix(64,0,0,64,8414.21223,2048.016)">
                    <path d="M0.423,0.012C0.367,0.012 0.316,0.003 0.27,-0.015C0.223,-0.033 0.182,-0.059 0.148,-0.091C0.114,-0.124 0.087,-0.162 0.068,-0.206C0.049,-0.25 0.039,-0.298 0.039,-0.35C0.039,-0.402 0.049,-0.45 0.068,-0.494C0.087,-0.538 0.114,-0.576 0.148,-0.609C0.182,-0.642 0.223,-0.667 0.27,-0.685C0.316,-0.703 0.367,-0.712 0.422,-0.712C0.478,-0.712 0.528,-0.703 0.575,-0.685C0.621,-0.667 0.662,-0.642 0.696,-0.609C0.73,-0.577 0.757,-0.538 0.776,-0.495C0.795,-0.451 0.805,-0.402 0.805,-0.35C0.805,-0.298 0.795,-0.25 0.776,-0.205C0.757,-0.161 0.73,-0.123 0.696,-0.091C0.662,-0.058 0.621,-0.033 0.575,-0.015C0.528,0.003 0.478,0.012 0.423,0.012ZM0.422,-0.126C0.453,-0.126 0.482,-0.131 0.509,-0.142C0.535,-0.153 0.558,-0.168 0.578,-0.188C0.598,-0.208 0.613,-0.232 0.624,-0.259C0.635,-0.287 0.641,-0.317 0.641,-0.35C0.641,-0.383 0.635,-0.414 0.624,-0.441C0.613,-0.468 0.598,-0.492 0.578,-0.512C0.558,-0.532 0.535,-0.547 0.509,-0.558C0.482,-0.569 0.453,-0.574 0.422,-0.574C0.391,-0.574 0.362,-0.569 0.335,-0.558C0.309,-0.547 0.286,-0.532 0.266,-0.512C0.246,-0.492 0.231,-0.468 0.22,-0.441C0.209,-0.413 0.203,-0.383 0.203,-0.35C0.203,-0.317 0.209,-0.287 0.22,-0.259C0.231,-0.232 0.246,-0.208 0.266,-0.188C0.285,-0.168 0.309,-0.153 0.335,-0.142C0.362,-0.131 0.391,-0.126 0.422,-0.126Z" style="fill-rule:nonzero;"/>
                </g>
                <g transform="matrix(64,0,0,64,8474.613905,2048.016)">
                    <path d="M0.083,-0L0.083,-0.7L0.245,-0.7L0.245,-0.132L0.596,-0.132L0.596,-0L0.083,-0Z" style="fill-rule:nonzero;"/>
                </g>
                <g transform="matrix(64,0,0,64,8519.114931,2048.016)">
                    <path d="M0.394,0.012C0.295,0.012 0.217,-0.016 0.161,-0.071C0.105,-0.126 0.077,-0.205 0.077,-0.308L0.077,-0.7L0.239,-0.7L0.239,-0.314C0.239,-0.247 0.253,-0.199 0.28,-0.17C0.308,-0.14 0.346,-0.126 0.395,-0.126C0.445,-0.126 0.483,-0.14 0.51,-0.17C0.537,-0.199 0.551,-0.247 0.551,-0.314L0.551,-0.7L0.711,-0.7L0.711,-0.308C0.711,-0.205 0.683,-0.126 0.627,-0.071C0.571,-0.016 0.493,0.012 0.394,0.012Z" style="fill-rule:nonzero;"/>
                </g>
                <g transform="matrix(64,0,0,64,8575.026638,2048.016)">
                    <path d="M0.228,-0L0.228,-0.568L0.004,-0.568L0.004,-0.7L0.614,-0.7L0.614,-0.568L0.39,-0.568L0.39,-0L0.228,-0Z" style="fill-rule:nonzero;"/>
                </g>
                <g transform="matrix(64,0,0,64,8620.965569,2048.016)">
                    <rect x="0.083" y="-0.7" width="0.162" height="0.7" style="fill-rule:nonzero;"/>
                </g>
                <g transform="matrix(64,0,0,64,8648.375327,2048.016)">
                    <path d="M0.423,0.012C0.367,0.012 0.316,0.003 0.27,-0.015C0.223,-0.033 0.182,-0.059 0.148,-0.091C0.114,-0.124 0.087,-0.162 0.068,-0.206C0.049,-0.25 0.039,-0.298 0.039,-0.35C0.039,-0.402 0.049,-0.45 0.068,-0.494C0.087,-0.538 0.114,-0.576 0.148,-0.609C0.182,-0.642 0.223,-0.667 0.27,-0.685C0.316,-0.703 0.367,-0.712 0.422,-0.712C0.478,-0.712 0.528,-0.703 0.575,-0.685C0.621,-0.667 0.662,-0.642 0.696,-0.609C0.73,-0.577 0.757,-0.538 0.776,-0.495C0.795,-0.451 0.805,-0.402 0.805,-0.35C0.805,-0.298 0.795,-0.25 0.776,-0.205C0.757,-0.161 0.73,-0.123 0.696,-0.091C0.662,-0.058 0.621,-0.033 0.575,-0.015C0.528,0.003 0.478,0.012 0.423,0.012ZM0.422,-0.126C0.453,-0.126 0.482,-0.131 0.509,-0.142C0.535,-0.153 0.558,-0.168 0.578,-0.188C0.598,-0.208 0.613,-0.232 0.624,-0.259C0.635,-0.287 0.641,-0.317 0.641,-0.35C0.641,-0.383 0.635,-0.414 0.624,-0.441C0.613,-0.468 0.598,-0.492 0.578,-0.512C0.558,-0.532 0.535,-0.547 0.509,-0.558C0.482,-0.569 0.453,-0.574 0.422,-0.574C0.391,-0.574 0.362,-0.569 0.335,-0.558C0.309,-0.547 0.286,-0.532 0.266,-0.512C0.246,-0.492 0.231,-0.468 0.22,-0.441C0.209,-0.413 0.203,-0.383 0.203,-0.35C0.203,-0.317 0.209,-0.287 0.22,-0.259C0.231,-0.232 0.246,-0.208 0.266,-0.188C0.285,-0.168 0.309,-0.153 0.335,-0.142C0.362,-0.131 0.391,-0.126 0.422,-0.126Z" style="fill-rule:nonzero;"/>
                </g>
                <g transform="matrix(64,0,0,64,8708.777002,2048.016)">
                    <path d="M0.083,-0L0.083,-0.7L0.217,-0.7L0.63,-0.196L0.565,-0.196L0.565,-0.7L0.725,-0.7L0.725,-0L0.592,-0L0.178,-0.504L0.243,-0.504L0.243,-0L0.083,-0Z" style="fill-rule:nonzero;"/>
                </g>
                <g transform="matrix(64,0,0,64,8766.903327,2048.016)">
                    <path d="M0.313,0.012C0.257,0.012 0.204,0.004 0.152,-0.011C0.101,-0.026 0.059,-0.045 0.028,-0.069L0.083,-0.191C0.113,-0.17 0.148,-0.152 0.189,-0.139C0.231,-0.125 0.272,-0.118 0.314,-0.118C0.346,-0.118 0.372,-0.121 0.392,-0.128C0.412,-0.134 0.426,-0.143 0.435,-0.154C0.444,-0.166 0.449,-0.179 0.449,-0.193C0.449,-0.212 0.442,-0.227 0.427,-0.238C0.412,-0.249 0.393,-0.258 0.369,-0.265C0.345,-0.272 0.318,-0.279 0.289,-0.285C0.26,-0.291 0.231,-0.299 0.202,-0.308C0.173,-0.317 0.147,-0.329 0.123,-0.344C0.099,-0.359 0.079,-0.378 0.064,-0.402C0.05,-0.426 0.042,-0.457 0.042,-0.494C0.042,-0.534 0.053,-0.57 0.074,-0.603C0.096,-0.636 0.129,-0.662 0.172,-0.682C0.216,-0.702 0.271,-0.712 0.337,-0.712C0.381,-0.712 0.424,-0.707 0.467,-0.696C0.51,-0.686 0.548,-0.67 0.58,-0.65L0.53,-0.527C0.497,-0.546 0.465,-0.56 0.432,-0.569C0.399,-0.577 0.367,-0.582 0.336,-0.582C0.304,-0.582 0.279,-0.578 0.259,-0.571C0.239,-0.564 0.225,-0.554 0.216,-0.542C0.207,-0.53 0.203,-0.517 0.203,-0.502C0.203,-0.484 0.21,-0.469 0.225,-0.458C0.24,-0.447 0.259,-0.438 0.283,-0.432C0.307,-0.425 0.334,-0.418 0.363,-0.412C0.392,-0.406 0.421,-0.398 0.45,-0.389C0.479,-0.38 0.505,-0.368 0.529,-0.354C0.553,-0.339 0.573,-0.32 0.587,-0.296C0.602,-0.272 0.61,-0.242 0.61,-0.205C0.61,-0.166 0.599,-0.13 0.577,-0.097C0.555,-0.064 0.523,-0.038 0.479,-0.018C0.435,0.002 0.38,0.012 0.313,0.012Z" style="fill-rule:nonzero;"/>
                </g>
            </g>
            <g transform="matrix(0,1.769912,-0.655523,0,21.10337,-1629.322187)">
                <path d="M1077.665,2.818C1072.44,3.56 1067.101,3.943 1061.673,3.943C999.307,3.943 948.673,-46.69 948.673,-109.057C948.673,-171.423 999.307,-222.057 1061.673,-222.057C1067.101,-222.057 1072.44,-221.673 1077.665,-220.932C1083.629,-220.085 1089.444,-218.773 1095.072,-217.032L1029.712,-151.672L1146.711,-34.673C1143.399,-30.89 1139.839,-27.331 1136.057,-24.019L1061.673,-98.403L1029.712,-66.442L1051.019,-45.134L1072.327,-66.442L1082.981,-55.788L1061.673,-34.481L1095.072,-1.082C1089.444,0.659 1083.629,1.972 1077.665,2.818ZM1063.702,-206.969C1063.027,-206.983 1062.351,-206.99 1061.673,-206.99C1007.622,-206.99 963.74,-163.108 963.74,-109.057C963.74,-55.006 1007.622,-11.123 1061.673,-11.123C1062.351,-11.123 1063.027,-11.13 1063.702,-11.144L1008.404,-66.442L1051.019,-109.057L1008.404,-151.672L1063.702,-206.969Z"/>
            </g>
        </g>
    </g>
</svg>
