<svg width="500" height="500" viewBox="0 0 500 500" fill="none" xmlns="http://www.w3.org/2000/svg">
<mask id="path-1-inside-1_19_59" fill="white">
<path d="M451 250H345L248 153L301 100L451 250Z"/>
</mask>
<path d="M451 250V254H460.657L453.828 247.172L451 250ZM345 250L342.172 252.828L343.343 254H345V250ZM248 153L245.172 150.172L242.343 153L245.172 155.828L248 153ZM301 100L303.828 97.1716L301 94.3431L298.172 97.1716L301 100ZM451 250V246H345V250V254H451V250ZM345 250L347.828 247.172L250.828 150.172L248 153L245.172 155.828L342.172 252.828L345 250ZM248 153L250.828 155.828L303.828 102.828L301 100L298.172 97.1716L245.172 150.172L248 153ZM301 100L298.172 102.828L448.172 252.828L451 250L453.828 247.172L303.828 97.1716L301 100Z" fill="white" mask="url(#path-1-inside-1_19_59)"/>
<path d="M55.8281 248H346.172L201 102.828L55.8281 248Z" stroke="white" stroke-width="4"/>
<path d="M55.8281 248H246.172L151 152.828L55.8281 248Z" stroke="white" stroke-width="4"/>
<path d="M54.4198 302.958V315.666H71.1491V318.624H54.4198V332.35H51V300H73.1825V302.958H54.4198ZM96.7888 332.627C94.9402 332.627 93.2303 332.226 91.6591 331.425C90.0878 330.624 88.8092 329.484 87.8233 328.005L89.8567 325.695C91.6437 328.344 93.9697 329.669 96.835 329.669C100.84 329.669 102.843 327.297 102.843 322.552V302.958H91.0121V300H106.216V322.414C106.216 325.803 105.415 328.36 103.813 330.085C102.242 331.78 99.9005 332.627 96.7888 332.627ZM153.114 329.392V332.35H130.238V300H152.421V302.958H133.658V314.465H150.388V317.376H133.658V329.392H153.114ZM174.918 300H178.338V314.696V329.392H196.454V332.35H174.918V300ZM215.901 300H229.072C232.491 300 235.511 300.693 238.13 302.08C240.748 303.435 242.782 305.345 244.23 307.81C245.678 310.244 246.402 313.032 246.402 316.175C246.402 319.317 245.678 322.121 244.23 324.586C242.782 327.02 240.748 328.93 238.13 330.316C235.511 331.672 232.491 332.35 229.072 332.35H215.901V300ZM228.887 329.392C231.721 329.392 234.201 328.837 236.327 327.728C238.453 326.588 240.101 325.032 241.272 323.061C242.443 321.058 243.028 318.763 243.028 316.175C243.028 313.587 242.443 311.307 241.272 309.335C240.101 307.333 238.453 305.777 236.327 304.668C234.201 303.528 231.721 302.958 228.887 302.958H219.321V329.392H228.887ZM301.433 300V332.35H298.152V306.47L285.443 328.237H283.826L271.117 306.609V332.35H267.836V300H270.655L284.704 323.985L298.614 300H301.433ZM346.02 323.708H327.997L324.115 332.35H320.557L335.345 300H338.719L353.507 332.35H349.902L346.02 323.708ZM344.773 320.935L337.009 303.558L329.245 320.935H344.773ZM399.666 300V332.35H396.847L376.05 306.1V332.35H372.631V300H375.45L396.292 326.249V300H399.666ZM451 300V332.35H448.181L427.385 306.1V332.35H423.965V300H426.784L447.626 326.249V300H451Z" fill="white"/>
<path d="M123.646 369.861C128.625 369.861 130.939 367.385 130.939 364.505C130.939 357.588 119.528 360.468 119.528 355.866C119.528 354.224 120.901 352.878 124.103 352.878C125.772 352.878 127.629 353.363 129.271 354.413L130.159 352.259C128.598 351.183 126.31 350.591 124.103 350.591C119.151 350.591 116.89 353.067 116.89 355.974C116.89 362.971 128.302 360.064 128.302 364.667C128.302 366.308 126.902 367.573 123.646 367.573C121.224 367.573 118.828 366.658 117.429 365.393L116.433 367.493C117.94 368.892 120.766 369.861 123.646 369.861ZM157.136 369.861C162.869 369.861 167.121 365.77 167.121 360.226C167.121 354.682 162.869 350.591 157.136 350.591C151.35 350.591 147.097 354.709 147.097 360.226C147.097 365.743 151.35 369.861 157.136 369.861ZM157.136 367.466C152.911 367.466 149.789 364.398 149.789 360.226C149.789 356.054 152.911 352.986 157.136 352.986C161.308 352.986 164.43 356.054 164.43 360.226C164.43 364.398 161.308 367.466 157.136 367.466ZM185.002 369.646H197.894V367.304H187.693V350.806H185.002V369.646ZM222.233 369.861C227.212 369.861 230.2 366.981 230.2 361.518V350.806H227.589V361.41C227.589 365.582 225.651 367.466 222.26 367.466C218.869 367.466 216.958 365.582 216.958 361.41V350.806H214.267V361.518C214.267 366.981 217.281 369.861 222.233 369.861ZM252.871 369.646H255.536V353.148H261.995V350.806H246.412V353.148H252.871V369.646ZM278.691 369.646H281.383V350.806H278.691V369.646ZM309.302 369.861C315.034 369.861 319.287 365.77 319.287 360.226C319.287 354.682 315.034 350.591 309.302 350.591C303.515 350.591 299.263 354.709 299.263 360.226C299.263 365.743 303.515 369.861 309.302 369.861ZM309.302 367.466C305.076 367.466 301.954 364.398 301.954 360.226C301.954 356.054 305.076 352.986 309.302 352.986C313.473 352.986 316.596 356.054 316.596 360.226C316.596 364.398 313.473 367.466 309.302 367.466ZM350.678 350.806V364.855L339.374 350.806H337.167V369.646H339.859V355.597L351.163 369.646H353.369V350.806H350.678ZM378.275 369.861C383.254 369.861 385.568 367.385 385.568 364.505C385.568 357.588 374.157 360.468 374.157 355.866C374.157 354.224 375.529 352.878 378.732 352.878C380.401 352.878 382.258 353.363 383.9 354.413L384.788 352.259C383.227 351.183 380.939 350.591 378.732 350.591C373.78 350.591 371.519 353.067 371.519 355.974C371.519 362.971 382.931 360.064 382.931 364.667C382.931 366.308 381.531 367.573 378.275 367.573C375.852 367.573 373.457 366.658 372.057 365.393L371.062 367.493C372.569 368.892 375.395 369.861 378.275 369.861Z" fill="white"/>
</svg>
