<svg width="500" height="500" viewBox="0 0 500 500" fill="none" xmlns="http://www.w3.org/2000/svg">
<path d="M55.8281 323H346.172L201 177.828L55.8281 323Z" stroke="white" stroke-width="4"/>
<mask id="path-2-inside-1_19_59" fill="white">
<path d="M454 325H348L251 228L304 175L454 325Z"/>
</mask>
<path d="M454 325V329H463.657L456.828 322.172L454 325ZM348 325L345.172 327.828L346.343 329H348V325ZM251 228L248.172 225.172L245.343 228L248.172 230.828L251 228ZM304 175L306.828 172.172L304 169.343L301.172 172.172L304 175ZM454 325V321H348V325V329H454V325ZM348 325L350.828 322.172L253.828 225.172L251 228L248.172 230.828L345.172 327.828L348 325ZM251 228L253.828 230.828L306.828 177.828L304 175L301.172 172.172L248.172 225.172L251 228ZM304 175L301.172 177.828L451.172 327.828L454 325L456.828 322.172L306.828 172.172L304 175Z" fill="white" mask="url(#path-2-inside-1_19_59)"/>
<path d="M55.8281 323H246.172L151 227.828L55.8281 323Z" stroke="white" stroke-width="4"/>
</svg>
