<?xml version="1.0" encoding="UTF-8" standalone="no"?>
<!-- Created with Inkscape (http://www.inkscape.org/) -->

<svg
   width="130mm"
   height="130mm"
   viewBox="0 0 130 130"
   version="1.1"
   id="svg1"
   xml:space="preserve"
   xmlns="http://www.w3.org/2000/svg"
   xmlns:svg="http://www.w3.org/2000/svg"><defs
     id="defs1" /><g
     id="layer1"
     transform="translate(-280.633,0.74835469)"><rect
       style="fill:#54afff;fill-opacity:1;stroke:#ffffff;stroke-width:0.375489;stroke-opacity:1"
       id="rect16"
       width="131.62451"
       height="131.62451"
       x="279.82074"
       y="-1.5606092" /></g><g
     id="g13-0-1"
     transform="matrix(0.19893895,0,0,0.19893896,19.97583,44.486496)"
     style="fill:none;stroke:#ffffff;stroke-opacity:1"><g
       id="g2-0-1"
       transform="translate(-18.178457,-71.57767)"
       style="fill:none;stroke:#ffffff;stroke-opacity:1" /><g
       data-cell-id="VNwMs1GQWvYcyUR2wZ8o-2"
       id="g4-9-6"
       transform="translate(-18.178457,-71.57767)"
       style="fill:none;stroke:#ffffff;stroke-opacity:1"><g
         id="g3-0-3"
         style="fill:none;stroke:#ffffff;stroke-opacity:1"><path
           d="m 69.5,-20.5 175,155 -175,155 z"
           fill="none"
           stroke="#000000"
           stroke-width="5"
           stroke-miterlimit="10"
           transform="rotate(-90,157,134.5)"
           pointer-events="all"
           id="path1-9-4"
           style="fill:none;stroke:#ffffff;stroke-opacity:1" /></g></g><g
       data-cell-id="VNwMs1GQWvYcyUR2wZ8o-4"
       id="g6-5-5"
       transform="translate(-18.178457,-71.57767)"
       style="fill:none;stroke:#ffffff;stroke-opacity:1"><g
         id="g5-9-4"
         style="fill:none;stroke:#ffffff;stroke-opacity:1"><path
           d="m 244.5,-20.5 175,155 -175,155 z"
           fill="none"
           stroke="#000000"
           stroke-width="5"
           stroke-miterlimit="10"
           transform="rotate(-90,332,134.5)"
           pointer-events="all"
           id="path3-7-8"
           style="fill:none;stroke:#ffffff;stroke-opacity:1" /></g></g><g
       data-cell-id="VNwMs1GQWvYcyUR2wZ8o-14"
       id="g8-7-3"
       transform="translate(-18.178457,-71.57767)"
       style="fill:none;stroke:#ffffff;stroke-opacity:1"><g
         id="g7-2-3"
         style="fill:none;stroke:#ffffff;stroke-opacity:1"><path
           d="M 230,222 V 2 l 200,220 z"
           fill="none"
           stroke="#000000"
           stroke-width="5"
           stroke-miterlimit="10"
           pointer-events="all"
           id="path5-82-5"
           style="fill:none;stroke:#ffffff;stroke-opacity:1" /></g></g><g
       data-cell-id="VNwMs1GQWvYcyUR2wZ8o-15"
       id="g10-3-2"
       transform="translate(-18.178457,-71.57767)"
       style="fill:none;stroke:#ffffff;stroke-opacity:1"><g
         id="g9-5-8"
         style="fill:none;stroke:#ffffff;stroke-opacity:1"><path
           d="M 62,222 V 47 l 168,175 z"
           fill="none"
           stroke="#000000"
           stroke-width="5"
           stroke-miterlimit="10"
           transform="matrix(-1,0,0,1,292,0)"
           pointer-events="all"
           id="path7-9-6"
           style="fill:none;stroke:#ffffff;stroke-opacity:1" /></g></g></g><path
     d="m 8.3122698,81.264077 v 3.664815 H 13.1365 v 0.852903 H 8.3122698 v 3.958 h -0.98616 v -9.32862 H 13.72287 v 0.852902 z M 20.53019,89.819754 q -0.7996,0 -1.47925,-0.346491 -0.67966,-0.346492 -1.10611,-0.986169 l 0.58637,-0.66633 q 0.77294,1.146088 2.01232,1.146088 1.73245,0 1.73245,-2.052296 v -5.650479 h -3.41161 v -0.852902 h 4.38446 v 6.463401 q 0,1.465926 -0.69299,2.212215 -0.67965,0.732963 -2.02564,0.732963 z m 16.24254,-0.932862 v 0.852903 h -6.59667 v -9.32862 h 6.39677 v 0.852902 h -5.4106 v 3.318324 h 4.82423 v 0.839575 h -4.82423 v 3.464916 z m 6.28759,-8.475717 h 0.98616 v 8.475717 h 5.22403 v 0.852903 h -6.21019 z m 11.81812,0 h 3.79808 q 1.47926,0 2.61202,0.599697 1.13276,0.58637 1.75911,1.652498 0.62635,1.052802 0.62635,2.412115 0,1.359313 -0.62635,2.425441 -0.62635,1.052801 -1.75911,1.652498 -1.13276,0.586371 -2.61202,0.586371 h -3.79808 z m 3.74478,8.475717 q 1.22604,0 2.14558,-0.479757 0.91954,-0.493084 1.42595,-1.345987 0.50641,-0.866229 0.50641,-1.985663 0,-1.119435 -0.50641,-1.972337 -0.50641,-0.866229 -1.42595,-1.345987 -0.91954,-0.493084 -2.14558,-0.493084 h -2.75861 v 7.622815 z m 20.92019,-8.475717 v 9.32862 h -0.94619 v -7.462896 l -3.66482,6.276828 h -0.46643 l -3.66481,-6.236848 v 7.422916 h -0.94619 v -9.32862 h 0.81292 l 4.05129,6.916505 4.0113,-6.916505 z M 92.401,87.247721 h -5.19737 l -1.11944,2.492074 h -1.02615 l 4.26452,-9.32862 h 0.97284 l 4.26451,9.32862 h -1.03947 z m -0.35982,-0.799596 -2.23887,-5.010802 -2.23887,5.010802 z m 15.82944,-6.03695 v 9.32862 h -0.81292 l -5.99697,-7.569509 v 7.569509 h -0.98617 v -9.32862 h 0.81292 l 6.0103,7.569509 v -7.569509 z m 14.80327,0 v 9.32862 h -0.81293 l -5.99697,-7.569509 v 7.569509 h -0.98616 v -9.32862 h 0.81292 l 6.01029,7.569509 v -7.569509 z"
     id="text2-3-8"
     style="font-size:13.3266px;font-family:Montserrat;-inkscape-font-specification:'Montserrat, Normal';text-align:center;letter-spacing:3.96875px;text-anchor:middle;fill:#ffffff;stroke-width:1.37613"
     aria-label="FJELDMANN" /><path
     style="font-weight:500;font-size:7.76111px;font-family:Montserrat;-inkscape-font-specification:'Montserrat, Medium';text-align:center;letter-spacing:3.96875px;text-anchor:middle;fill:#ffffff;stroke-width:1.37613"
     d="m 30.68215,100.64166 c 1.4358,0 2.10326,-0.714023 2.10326,-1.544462 0,-1.994605 -3.29071,-1.164167 -3.29071,-2.491316 0,-0.473428 0.39582,-0.861484 1.31939,-0.861484 0.48119,0 1.0167,0.1397 1.49013,0.442384 l 0.25612,-0.620889 c -0.45015,-0.310444 -1.10984,-0.481189 -1.74625,-0.481189 -1.42805,0 -2.07998,0.714022 -2.07998,1.552222 0,2.017889 3.29071,1.179689 3.29071,2.506839 0,0.473427 -0.40358,0.838199 -1.34267,0.838199 -0.6985,0 -1.38924,-0.263877 -1.79282,-0.628649 l -0.28716,0.605366 c 0.43462,0.403579 1.24954,0.682979 2.07998,0.682979 z m 9.65764,0 c 1.65312,0 2.87938,-1.17969 2.87938,-2.778479 0,-1.598788 -1.22626,-2.778477 -2.87938,-2.778477 -1.66863,0 -2.89489,1.18745 -2.89489,2.778477 0,1.591028 1.22626,2.778479 2.89489,2.778479 z m 0,-0.69074 c -1.21849,0 -2.11878,-0.884767 -2.11878,-2.087739 0,-1.202972 0.90029,-2.087738 2.11878,-2.087738 1.20298,0 2.10327,0.884766 2.10327,2.087738 0,1.202972 -0.90029,2.087739 -2.10327,2.087739 z m 11.86957,-4.12891 v -0.675217 h -3.83399 v 5.432777 h 0.77611 v -2.196394 h 2.72415 V 97.71572 h -2.72415 v -1.89371 z m 6.18066,4.75756 h 0.76835 v -4.75756 h 1.86266 v -0.675217 h -4.49368 v 0.675217 h 1.86267 z m 14.32207,-5.432777 -1.49789,4.439355 -1.4979,-4.439355 h -0.71402 l -1.52894,4.416072 -1.46685,-4.416072 H 65.2071 l 1.8161,5.432777 h 0.83044 l 1.48237,-4.33846 1.48237,4.33846 h 0.81492 l 1.8161,-5.432777 z m 9.54122,5.432777 h 0.81492 l -2.46804,-5.432777 h -0.76835 l -2.46027,5.432777 h 0.7994 l 0.5976,-1.358194 h 2.88713 z m -3.2131,-1.979083 1.17193,-2.662061 1.17193,2.662061 z m 13.28208,1.979083 -1.28834,-1.823861 c 0.76059,-0.271639 1.19521,-0.877005 1.19521,-1.715205 0,-1.179689 -0.85372,-1.893711 -2.26624,-1.893711 h -2.11879 v 5.432777 h 0.77611 v -1.653116 h 1.34268 c 0.11641,0 0.23283,-0.0078 0.34148,-0.01552 l 1.17193,1.668636 z M 89.93963,98.266759 H 88.62024 V 95.82201 h 1.31939 c 0.99342,0 1.51342,0.442383 1.51342,1.218494 0,0.776111 -0.52,1.226255 -1.51342,1.226255 z m 8.29169,1.637594 v -1.75401 h 2.72415 V 97.490648 H 98.23132 V 95.82201 h 3.05787 v -0.675217 h -3.83398 v 5.432777 h 3.94264 v -0.675217 z"
     id="text2-6-7-2"
     aria-label="SOFTWARE" /></svg>
