<?xml version="1.0" encoding="UTF-8" standalone="no"?>
<!-- Created with Inkscape (http://www.inkscape.org/) -->

<svg
   width="130mm"
   height="130mm"
   viewBox="0 0 130 130"
   version="1.1"
   id="svg1"
   xml:space="preserve"
   xmlns="http://www.w3.org/2000/svg"
   xmlns:svg="http://www.w3.org/2000/svg"><defs
     id="defs1" /><g
     id="layer1"><rect
       style="display:inline;fill:#ffffff;fill-opacity:1;stroke:#ffffff;stroke-width:0.375489;stroke-opacity:1"
       id="rect16-3-5"
       width="131.62451"
       height="131.62451"
       x="-0.81225455"
       y="-0.81225455" /></g><g
     id="g13"
     transform="matrix(0.19893895,0,0,0.19893896,19.975834,44.486489)"
     style="display:inline;fill:none"><g
       id="g1"
       transform="translate(-18.178457,-71.57767)"
       style="fill:none" /><g
       data-cell-id="VNwMs1GQWvYcyUR2wZ8o-2"
       id="g3"
       transform="translate(-18.178457,-71.57767)"
       style="fill:none"><g
         id="g2"
         style="fill:none"><path
           d="m 69.5,-20.5 175,155 -175,155 z"
           fill="none"
           stroke="#000000"
           stroke-width="5"
           stroke-miterlimit="10"
           transform="rotate(-90,157,134.5)"
           pointer-events="all"
           id="path1"
           style="fill:none" /></g></g><g
       data-cell-id="VNwMs1GQWvYcyUR2wZ8o-4"
       id="g5"
       transform="translate(-18.178457,-71.57767)"
       style="fill:none"><g
         id="g4"
         style="fill:none"><path
           d="m 244.5,-20.5 175,155 -175,155 z"
           fill="none"
           stroke="#000000"
           stroke-width="5"
           stroke-miterlimit="10"
           transform="rotate(-90,332,134.5)"
           pointer-events="all"
           id="path3"
           style="fill:none" /></g></g><g
       data-cell-id="VNwMs1GQWvYcyUR2wZ8o-14"
       id="g7"
       transform="translate(-18.178457,-71.57767)"
       style="fill:none"><g
         id="g6"
         style="fill:none"><path
           d="M 230,222 V 2 l 200,220 z"
           fill="none"
           stroke="#000000"
           stroke-width="5"
           stroke-miterlimit="10"
           pointer-events="all"
           id="path5"
           style="fill:none" /></g></g><g
       data-cell-id="VNwMs1GQWvYcyUR2wZ8o-15"
       id="g9"
       transform="translate(-18.178457,-71.57767)"
       style="fill:none"><g
         id="g8"
         style="fill:none"><path
           d="M 62,222 V 47 l 168,175 z"
           fill="none"
           stroke="#000000"
           stroke-width="5"
           stroke-miterlimit="10"
           transform="matrix(-1,0,0,1,292,0)"
           pointer-events="all"
           id="path7"
           style="fill:none" /></g></g></g><path
     d="m 8.3122782,81.264067 v 3.664815 h 4.8242288 v 0.852902 H 8.3122782 v 3.958 H 7.3261098 v -9.32862 h 6.3967682 v 0.852903 z m 12.2179158,8.555677 q -0.799596,0 -1.479253,-0.346492 -0.679656,-0.346491 -1.106108,-0.986168 l 0.586371,-0.66633 q 0.772943,1.146087 2.012316,1.146087 1.732458,0 1.732458,-2.052296 v -5.650478 h -3.411609 v -0.852903 h 4.384451 v 6.463401 q 0,1.465926 -0.692983,2.212216 -0.679657,0.732963 -2.025643,0.732963 z m 16.242541,-0.932862 v 0.852902 h -6.596667 v -9.32862 h 6.396768 v 0.852903 h -5.410599 v 3.318323 h 4.824229 v 0.839576 h -4.824229 v 3.464916 z m 6.287586,-8.475718 h 0.986168 v 8.475718 h 5.224027 v 0.852902 h -6.210195 z m 11.818126,0 h 3.798081 q 1.479253,0 2.612014,0.599697 1.132761,0.586371 1.759111,1.652499 0.626351,1.052801 0.626351,2.412114 0,1.359313 -0.626351,2.425441 -0.62635,1.052802 -1.759111,1.652499 -1.132761,0.58637 -2.612014,0.58637 h -3.798081 z m 3.744775,8.475718 q 1.226047,0 2.145583,-0.479758 0.919535,-0.493084 1.425946,-1.345986 0.506411,-0.866229 0.506411,-1.985664 0,-1.119434 -0.506411,-1.972337 -0.506411,-0.866229 -1.425946,-1.345986 -0.919536,-0.493084 -2.145583,-0.493084 h -2.758606 v 7.622815 z M 79.54341,80.411164 v 9.32862 h -0.946189 v -7.462896 l -3.664815,6.276829 H 74.465975 L 70.80116,82.316868 v 7.422916 h -0.946188 v -9.32862 h 0.812922 l 4.051287,6.916506 4.011306,-6.916506 z m 12.857595,6.836546 h -5.197374 l -1.119434,2.492074 h -1.026149 l 4.264512,-9.32862 h 0.972842 l 4.264512,9.32862 h -1.039475 z m -0.359818,-0.799596 -2.238869,-5.010802 -2.238869,5.010802 z m 15.829433,-6.03695 v 9.32862 h -0.81292 l -5.99697,-7.569509 v 7.569509 h -0.98617 v -9.32862 h 0.81292 l 6.0103,7.569509 v -7.569509 z m 14.80327,0 v 9.32862 h -0.81292 L 115.864,82.170275 v 7.569509 h -0.98617 v -9.32862 h 0.81292 l 6.0103,7.569509 v -7.569509 z"
     id="text2"
     style="font-size:13.3266px;font-family:Montserrat;-inkscape-font-specification:'Montserrat, Normal';text-align:center;letter-spacing:3.96875px;text-anchor:middle;stroke-width:1.37613"
     aria-label="FJELDMANN" /><path
     style="font-weight:500;font-size:7.76111px;font-family:Montserrat;-inkscape-font-specification:'Montserrat, Medium';text-align:center;letter-spacing:3.96875px;text-anchor:middle;stroke-width:1.37613"
     d="m 30.682138,100.64166 c 1.435805,0 2.10326,-0.714026 2.10326,-1.544465 0,-1.994605 -3.29071,-1.164166 -3.29071,-2.491316 0,-0.473428 0.395816,-0.861483 1.319389,-0.861483 0.481188,0 1.016705,0.1397 1.490133,0.442383 l 0.256116,-0.620889 c -0.450144,-0.310444 -1.109838,-0.481189 -1.746249,-0.481189 -1.428045,0 -2.079978,0.714022 -2.079978,1.552222 0,2.017889 3.290711,1.179689 3.290711,2.506839 0,0.473427 -0.403578,0.838199 -1.342672,0.838199 -0.6985,0 -1.389239,-0.263877 -1.792817,-0.628649 l -0.287161,0.605366 c 0.434622,0.403582 1.249539,0.682982 2.079978,0.682982 z m 9.657646,0 c 1.653116,0 2.879371,-1.179693 2.879371,-2.778481 0,-1.598789 -1.226255,-2.778478 -2.879371,-2.778478 -1.668639,0 -2.894894,1.18745 -2.894894,2.778478 0,1.591027 1.226255,2.778481 2.894894,2.778481 z m 0,-0.690743 c -1.218495,0 -2.118783,-0.884766 -2.118783,-2.087738 0,-1.202973 0.900288,-2.087739 2.118783,-2.087739 1.202972,0 2.10326,0.884766 2.10326,2.087739 0,1.202972 -0.900288,2.087738 -2.10326,2.087738 z m 11.869561,-4.12891 V 95.14679 h -3.833988 v 5.43278 h 0.776111 v -2.196397 h 2.724149 v -0.667456 h -2.724149 v -1.89371 z m 6.180662,4.757563 h 0.76835 v -4.757563 h 1.862666 V 95.14679 H 56.52734 v 0.675217 h 1.862667 z m 14.322074,-5.43278 -1.497894,4.439355 -1.497894,-4.439355 h -0.714022 l -1.528939,4.416072 -1.466849,-4.416072 h -0.799395 l 1.8161,5.43278 h 0.830439 l 1.482372,-4.338463 1.482372,4.338463 h 0.814916 l 1.8161,-5.43278 z m 9.541218,5.43278 h 0.814917 l -2.468033,-5.43278 h -0.76835 l -2.460272,5.43278 h 0.799394 l 0.597606,-1.358197 h 2.887133 z m -3.213099,-1.979086 1.171927,-2.662061 1.171928,2.662061 z m 13.282082,1.979086 -1.288344,-1.823864 c 0.760589,-0.271639 1.195211,-0.877005 1.195211,-1.715205 0,-1.179689 -0.853722,-1.893711 -2.266244,-1.893711 h -2.118783 v 5.43278 h 0.776111 v -1.653119 h 1.342672 c 0.116417,0 0.232833,-0.0078 0.341489,-0.01552 l 1.171927,1.668639 z m -2.38266,-2.312814 h -1.319389 v -2.444749 h 1.319389 c 0.993422,0 1.513416,0.442383 1.513416,1.218494 0,0.776111 -0.519994,1.226255 -1.513416,1.226255 z m 8.291684,1.637594 v -1.75401 h 2.724154 v -0.659695 h -2.724154 v -1.668638 h 3.057874 V 95.14679 h -3.833985 v 5.43278 h 3.942645 v -0.67522 z"
     id="text2-6"
     aria-label="SOFTWARE" /></svg>
